<?xml version="1.0" standalone="no"?>
<!DOCTYPE svg PUBLIC "-//W3C//DTD SVG 20010904//EN"
 "http://www.w3.org/TR/2001/REC-SVG-20010904/DTD/svg10.dtd">
<svg version="1.0" xmlns="http://www.w3.org/2000/svg"
 width="854.000000pt" height="854.000000pt" viewBox="0 0 854.000000 854.000000"
 preserveAspectRatio="xMidYMid meet">

<g transform="translate(0.000000,854.000000) scale(0.100000,-0.100000)"
fill="#000000" stroke="none">
<path d="M3649 6269 c-120 -18 -218 -116 -219 -218 -1 -208 281 -318 449 -174
188 161 29 432 -230 392z"/>
<path d="M4730 6273 c-96 -15 -168 -63 -204 -135 -57 -114 -13 -234 107 -294
176 -90 397 21 397 199 0 62 -19 105 -65 152 -59 58 -156 90 -235 78z"/>
<path d="M4080 5608 c0 -23 11 -48 21 -48 14 0 11 24 -6 46 -12 16 -14 17 -15
2z"/>
<path d="M4344 5596 c-8 -35 1 -44 16 -16 8 15 9 25 1 33 -7 7 -12 2 -17 -17z"/>
</g>
</svg>
